<?xml version="1.0" encoding="utf-8"?>
<!-- Generator: Adobe Illustrator 19.2.0, SVG Export Plug-In . SVG Version: 6.00 Build 0)  -->
<svg version="1.1" id="Objects" xmlns="http://www.w3.org/2000/svg" xmlns:xlink="http://www.w3.org/1999/xlink" x="0px" y="0px"
	 viewBox="0 0 596.9 458.1" style="enable-background:new 0 0 596.9 458.1;" xml:space="preserve">
<style type="text/css">
	.st0{fill:#E5E5E5;}
	.st1{fill:none;stroke:#B2B2B2;stroke-width:2.1978;stroke-miterlimit:10;}
	.st2{fill:#DC4D40;}
	.st3{fill:#FFDAA2;}
	.st4{fill:#F7D197;}
	.st5{fill:#E8B23C;}
	.st6{fill:#F1F1F1;}
	.st7{fill:#4D4D4D;}
	.st8{fill:none;stroke:#4D4D4D;stroke-width:6.5934;stroke-miterlimit:10;}
	.st9{fill:#1A1A1A;}
	.st10{fill:#FBED21;}
	.st11{opacity:0.2;fill:#FBED21;}
	.st12{fill:#CBCBCB;}
	.st13{fill:none;stroke:#CBCBCB;stroke-width:2.1978;stroke-miterlimit:10;}
	.st14{fill:#29AAE1;}
	.st15{fill:#C0272D;}
	.st16{fill:#8BC53F;}
	.st17{fill:none;stroke:#E5E5E5;stroke-width:5.3752;stroke-miterlimit:10;}
	.st18{fill:#B2B2B2;}
	.st19{fill:none;stroke:#E5E5E5;stroke-width:5;stroke-miterlimit:10;}
	.st20{fill:none;stroke:#CBCBCB;stroke-width:5;stroke-miterlimit:10;}
	.st21{fill:#323330;}
</style>
<g>
	<g>
		<rect x="313" y="251.5" class="st0" width="53" height="32.8"/>
		<line class="st1" x1="338.4" y1="264" x2="338.4" y2="278.8"/>
		<path class="st2" d="M529.1,409.4c-22.7-45.4-71.1-145.8-80.2-153.5c-9.2-7.7-57.5-15.4-85.1-15.4c0,0,5.2,34.1-25.3,34.1
			S313,240.5,313,240.5c-27.7,0-76,7.7-85.1,15.4c-9.2,7.7-57.5,108.1-80.2,153.5c-22.7,45.4,6.2,48.7,6.2,48.7h79.5V420
			c-11.7-4-37-8.8-37-8.8c7.7-18.7,52.4-104,52.4-104l4.8,146.9h84.8h84.8l4.8-146.9c0,0,44.7,85.3,52.4,104c0,0-25.3,4.8-37,8.8
			v38.1h79.5C522.9,458.1,551.8,454.8,529.1,409.4z"/>
		<path class="st3" d="M363.7,251.1c0,0-3.6,12.9-25.3,12.9c-21.8,0-25.3-12.9-25.3-12.9v-61.4h50.7V251.1z"/>
		<g>
			<path class="st3" d="M338.4,82.6c-48.5-18.9-70.2,0-70.2,0s3.8,66.7,5.5,80.2c4.1,32,45.8,53.3,64.7,53.3s60.6-21.3,64.7-53.3
				c1.7-13.5,5.5-80.2,5.5-80.2S386.9,63.7,338.4,82.6z"/>
			<path class="st4" d="M270.4,119.9c0,0-12.3-12.2-16.7-4.9c-9.6,16.2,7.2,22.2,8.3,37.5c0.8,10.9,8.2,10.8,11.1,5.4
				C276.1,152.5,274.9,123.5,270.4,119.9z"/>
			<path class="st4" d="M406.3,119.9c0,0,12.3-12.2,16.7-4.9c9.6,16.2-7.2,22.2-8.3,37.5c-0.8,10.9-8.2,10.8-11.1,5.4
				C400.7,152.5,401.9,123.5,406.3,119.9z"/>
			<path class="st5" d="M406,140.7h-2.7c0,0,3.5,28.3-64.9,28.3s-64.9-28.3-64.9-28.3h-2.7c0,0-3.9,32,9.1,50.3
				c17.9,25.2,58.6,25.2,58.6,25.2s40.7,0,58.6-25.2C409.9,172.7,406,140.7,406,140.7z M338.4,192.1c-14.5,0-22-4.1-22-10.2
				c0-6,8.9-2.5,22-2.5c13.1,0,22-3.6,22,2.5C360.4,187.9,352.9,192.1,338.4,192.1z"/>
			<path class="st5" d="M406,140.7c0,0-2.9-20.2,6.9-25.9c0,0,17.2-57.3,2.4-72.4c-14.8-15.1-36-24.7-53.8-26.6
				c-17.9-1.9-37.6-5.5-47-15.7c0,0,4.7,12.9,11,13.7c0,0-41.5,7.4-68.1-1.6c0,0,7.4,20.1,24.2,23.6c0,0-35.2,8.2-56,1.4
				c0,0,16.6,33.9,42.8,45.5c0,0,19.9-9,29.5-5.1c0,0,1.9,5.5-6.6,9.1c0,0,23.4-0.8,33.5-5.8c0,0,0.8,3.8,0.3,7.4
				c0,0,26.6-5.9,40.4-13c0,0,11.5,8.6,7.7,12.1c0,0,27.7,1.1,33.6-3.8C406.6,83.5,403.4,133.2,406,140.7z"/>
			<path class="st5" d="M270.7,140.7c0,0,1-22.6-11.2-27.8c0,0-6.4-34.8-3.1-42.5l13.7,11.4c0,0,3.8,49.3,1.9,58.9H270.7z"/>
		</g>
		<path class="st6" d="M338.4,264c0,0-21.2,0.1-27.8,14.8c0,0-7-26.9,2.5-38.3C313,240.5,315.6,262.2,338.4,264z"/>
		<path class="st6" d="M338.4,264c0,0,21.2,0.1,27.8,14.8c0,0,7-26.9-2.5-38.3C363.7,240.5,361.1,262.2,338.4,264z"/>
	</g>
	<g>
		<g>
			<path class="st7" d="M86.8,408.1c0,1.2-1,2.2-2.2,2.2h-5.2c-1.2,0-2.2-1-2.2-2.2v-5.2c0-1.2,1-2.2,2.2-2.2h5.2
				c1.2,0,2.2,1,2.2,2.2V408.1z"/>
			<path class="st8" d="M92.2,258.7c0,0-98.9,2.7-45.6,150.4"/>
			<path class="st9" d="M107,411.5v-1.3c0-1.9-1-3.3-2.2-3.3H24.9c-1.2,0-2.2,1.5-2.2,3.3v1.3H107z"/>
			<circle class="st9" cx="92.2" cy="258.7" r="7.4"/>
			<g>
				
					<ellipse transform="matrix(0.7071 -0.7071 0.7071 0.7071 -166.5767 172.7155)" class="st10" cx="125.2" cy="287.4" rx="18.1" ry="18.1"/>
				<path class="st9" d="M94.7,256.9c-19.1,19.1-19.1,50.1,0,69.2l69.2-69.2C144.8,237.8,113.8,237.8,94.7,256.9z"/>
			</g>
		</g>
		<polygon class="st11" points="94.7,326.1 115.4,458.1 469.3,458.1 163.9,256.9 		"/>
	</g>
	<g>
		<g>
			<path class="st12" d="M456.6,335.8c-2.2-3.7-9.5-4.4-9.5-4.4H338.4H229.7c0,0-7.3,0.7-9.5,4.4c-2.2,3.7,2.2,120.1,2.2,120.1h116
				h116C454.4,455.9,458.8,339.4,456.6,335.8z"/>
			<path class="st0" d="M456.6,337.9c-2.2-3.7-9.5-4.4-9.5-4.4H338.4H229.7c0,0-7.3,0.7-9.5,4.4c-2.2,3.7,2.2,120.1,2.2,120.1h116
				h116C454.4,458.1,458.8,341.6,456.6,337.9z"/>
		</g>
		<circle class="st13" cx="338.4" cy="395.8" r="9.6"/>
		<circle class="st13" cx="338.4" cy="386.2" r="9.6"/>
		<ellipse transform="matrix(0.866 -0.5 0.5 0.866 -156.1001 218.7055)" class="st13" cx="330" cy="400.6" rx="9.6" ry="9.6"/>
		<ellipse transform="matrix(0.5 -0.866 0.866 0.5 -173.5816 500.5818)" class="st13" cx="346.7" cy="400.6" rx="9.6" ry="9.6"/>
	</g>
	<g>
		<path class="st6" d="M122.1,432.3H14.7v-10.5h107.4c0,0-0.7,0.4-0.7,5.3C121.5,431.9,122.1,432.3,122.1,432.3z"/>
		<path class="st6" d="M133.5,455.1H3.3V439h130.2c0,0-0.8,0.6-0.8,8.1C132.7,454.5,133.5,455.1,133.5,455.1z"/>
		<path class="st6" d="M137.8,417.5H8.1v-4.7h129.7c0,0-0.8,0.2-0.8,2.3C137,417.3,137.8,417.5,137.8,417.5z"/>
		<polygon class="st14" points="139,413.8 139,411.5 9.2,411.5 7.2,411.5 7.2,413.8 7.2,416.5 7.2,418.9 9.2,418.9 139,418.9 
			139,416.5 9.2,416.5 9.2,413.8 		"/>
		<polygon class="st15" points="123.8,423.6 123.8,418.9 12.4,418.9 12.4,418.9 12.4,423.6 12.4,431.4 12.4,436.1 12.4,436.1 
			17.1,436.1 17.1,436.1 123.8,436.1 123.8,431.4 17.1,431.4 17.1,423.6 		"/>
		<polygon class="st16" points="136.1,440.8 136.1,436.1 0,436.1 0,436.1 0,440.8 0,453.3 0,458.1 4.7,458.1 136.1,458.1 
			136.1,453.3 4.7,453.3 4.7,440.8 		"/>
	</g>
	<g>
		<path class="st17" d="M580.3,416.8c0,0,10.3-7.2,13,0c2.7,7.2-1.7,17.8-6.5,19.9c-4.8,2.1-14.4-2.4-14.4-2.4"/>
		<path class="st18" d="M516.9,453.9c0.2,2.4,2.1,4.2,4.5,4.2h63.2c2.4,0,4.3-1.9,4.5-4.2H516.9z"/>
		<path class="st6" d="M524.1,409v15.6c0,16,13,29,29,29c16,0,29-13,29-29V409H524.1z"/>
		<rect x="512.8" y="451.5" class="st0" width="80.6" height="4.1"/>
	</g>
</g>
<g>
	<path class="st19" d="M325.1,121.6c0,0,1.7-6.2,13.3-6.2"/>
	<path class="st19" d="M351.7,121.6c0,0-1.7-6.2-13.3-6.2"/>
	<path class="st20" d="M272.6,110.7c0,0-3.4,27.8,8.7,35.3c12.1,7.5,41.1,0,43-10.7c2-10.7,0-25.8,0-25.8"/>
	<path class="st20" d="M404.1,110.7c0,0,3.4,27.8-8.7,35.3c-12.1,7.5-41.1,0-43-10.7c-2-10.7,0-25.8,0-25.8"/>
	<path class="st21" d="M329.3,110.1c0,2.2-1.8,4-4,4h-53.5c-2.2,0-4-1.8-4-4V109c0-2.2,1.8-4,4-4h53.5c2.2,0,4,1.8,4,4V110.1z"/>
	<path class="st21" d="M347.4,110.1c0,2.2,1.8,4,4,4h53.5c2.2,0,4-1.8,4-4V109c0-2.2-1.8-4-4-4h-53.5c-2.2,0-4,1.8-4,4V110.1z"/>
</g>
</svg>
