<?xml version="1.0" encoding="utf-8"?>
<!-- Generator: Adobe Illustrator 19.2.0, SVG Export Plug-In . SVG Version: 6.00 Build 0)  -->
<svg version="1.1" id="Objects" xmlns="http://www.w3.org/2000/svg" xmlns:xlink="http://www.w3.org/1999/xlink" x="0px" y="0px"
	 viewBox="0 0 419.9 410.3" style="enable-background:new 0 0 419.9 410.3;" xml:space="preserve">
<style type="text/css">
	.st0{fill:#E5E5E5;}
	.st1{fill:#55ACEE;}
	.st2{fill:#FFDAA2;}
	.st3{fill:#F7D197;}
	.st4{fill:#4D4D4D;}
	.st5{fill:none;stroke:#E5E5E5;stroke-width:4.9458;stroke-miterlimit:10;}
	.st6{fill:#B2B2B2;}
	.st7{fill:#F1F1F1;}
	.st8{fill:#F7DC4C;}
	.st9{fill:none;stroke:#E5E5E5;stroke-width:5;stroke-miterlimit:10;}
	.st10{fill:none;stroke:#CBCBCB;stroke-width:5;stroke-miterlimit:10;}
	.st11{fill:#323330;}
</style>
<g>
	<g>
		<g>
			<polygon class="st0" points="261.9,330.2 238.5,406.2 213.1,330.2 213.1,220.3 261.9,220.3 			"/>
			<path class="st1" d="M411.9,365.5c-20.9-41.8-65.4-134.1-73.8-141.2c-8.4-7.1-52.9-14.2-78.3-14.2c0,0,4.9,121.4-10.5,159.1
				c-2.8,7-6.4,38.3-10.7,38.3c0,0-9-10.8-12.6-42.4c-5.6-49.4-12.8-155-12.8-155c-25.5,0-69.9,7.1-78.3,14.2
				c-8.4,7.1-52.9,99.4-73.8,141.2c-20.9,41.8,5.7,44.8,5.7,44.8h73.1l7.2-25.9c-10.8-3.7-41.3-17.2-41.3-17.2
				c7.1-17.2,48.2-95.7,48.2-95.7l4.4,138.9h78.1h78.1l4.4-138.9c0,0,41.1,78.5,48.2,95.7c0,0-23.3,15.7-34,19.4v23.8h73.1
				C406.2,410.3,432.8,407.3,411.9,365.5z"/>
			<path class="st2" d="M259.7,219.9c0,0-3.3,11.9-23.3,11.9c-20,0-23.3-11.9-23.3-11.9v-56.5h46.6V219.9z"/>
			<g>
				<path class="st3" d="M173.9,99.1c0,0-11.3-11.2-15.4-4.5c-8.9,14.9,6.6,20.4,7.7,34.5c0.7,10.1,7.5,10,10.2,5
					C179.1,129.2,178,102.5,173.9,99.1z"/>
				<path class="st3" d="M299,99.1c0,0,11.3-11.2,15.4-4.5c8.9,14.9-6.6,20.4-7.7,34.5c-0.7,10.1-7.5,10-10.2,5
					C293.7,129.2,294.9,102.5,299,99.1z"/>
				<path class="st2" d="M236.4,64.9c-44.6-17.4-64.6,0-64.6,0s3.5,61.3,5.1,73.8c3.8,29.4,42.1,49.1,59.5,49.1
					c17.4,0,55.7-19.6,59.5-49.1c1.6-12.4,5.1-73.8,5.1-73.8S281.1,47.5,236.4,64.9z"/>
				<path d="M298.7,118.3h-2.5c0,0,3.2,26-59.7,26c-62.9,0-59.7-26-59.7-26h-2.5c0,0-3.6,29.4,8.3,46.3
					c16.4,23.2,53.9,23.2,53.9,23.2s37.5,0,53.9-23.2C302.2,147.7,298.7,118.3,298.7,118.3z M236.4,165.6c-13.4,0-20.3-3.8-20.3-9.4
					c0-5.6,8.2-2.3,20.3-2.3c12.1,0,20.3-3.3,20.3,2.3C256.7,161.8,249.8,165.6,236.4,165.6z"/>
				<path class="st4" d="M298.6,118.3c0,0-0.9-20.8,10.3-25.6c0,0,5.9-32.1,2.9-39.1l-12.6,10.5c0,0-4.7,45.3-3,54.2H298.6z"/>
				<path d="M174.2,118.3c0,0,2.6-18.6-6.3-23.8c0,0-15.8-52.8-2.2-66.7c13.7-13.9,28.6-24.9,45-26.7c16.4-1.8,28.1-1.2,37.6,0.4
					c9.5,1.6,66.9,20.3,89.7,11.4c0,0-9.1,44.8-38.9,52.2c-29.7,7.3-51.1,10.6-119.2-2.1c0.3,2.7-2.5,40.7-3.2,55.3
					C176.7,118.3,175.5,119,174.2,118.3z"/>
			</g>
			<g>
				<path class="st5" d="M62.1,372.4c0,0,9.5-6.6,12,0c2.5,6.6-1.6,16.4-6,18.3c-4.4,1.9-13.2-2.2-13.2-2.2"/>
				<path class="st6" d="M3.8,406.5c0.2,2.2,2,3.9,4.2,3.9h58.2c2.2,0,4-1.7,4.2-3.9H3.8z"/>
				<path class="st7" d="M10.4,365.2v14.3c0,14.7,11.9,26.7,26.7,26.7c14.7,0,26.7-11.9,26.7-26.7v-14.3H10.4z"/>
				<rect y="404.3" class="st0" width="74.1" height="3.8"/>
			</g>
			<path class="st8" d="M229.2,232.7l-2.5,9.3l5.2,7.8h10.6l4.9-8l-3.9-10C243.5,231.8,235.6,231.3,229.2,232.7z"/>
			<polygon class="st8" points="231.9,245.4 226.7,363.2 238.5,406.2 250.4,365 242.5,245.4 			"/>
			<path d="M213.1,210.1c0,0-16.8,39.1-11.6,82.9c0.8,2.6,30.8,117.2,37,114.6C240.2,406.8,214.8,267.1,213.1,210.1z"/>
			<path d="M259.7,210.1c0,0,16.8,39.1,11.6,82.9c0,0-23.9,115.4-32.8,114.6C236.7,407.4,258.1,267.1,259.7,210.1z"/>
			<path class="st7" d="M236.4,231.8c0,0-19.5,0.1-25.6,13.6c0,0-6.5-24.8,2.3-35.3C213.1,210.1,215.5,230.1,236.4,231.8z"/>
			<path class="st7" d="M236.4,231.8c0,0,19.5,0.1,25.6,13.6c0,0,6.5-24.8-2.3-35.3C259.7,210.1,257.4,230.1,236.4,231.8z"/>
			<path class="st2" d="M194.5,410.3l0.3-9.3c0-9.1-7.4-16.6-16.6-16.6h-31.2c-9.1,0-16.6,7.4-16.6,16.6l-0.3,9.3H194.5z"/>
			<path class="st2" d="M349.1,410.3l0.3-9.3c0-9.1-7.4-16.6-16.6-16.6h-31.2c-9.1,0-16.6,7.4-16.6,16.6l-0.3,9.3H349.1z"/>
		</g>
	</g>
</g>
<g>
	<path class="st9" d="M223.2,103.1c0,0,1.7-6.2,13.3-6.2"/>
	<path class="st9" d="M249.7,103.1c0,0-1.7-6.2-13.3-6.2"/>
	<path class="st10" d="M170.7,92.2c0,0-3.4,27.8,8.7,35.3c12.1,7.5,41.1,0,43-10.7c2-10.7,0-25.8,0-25.8"/>
	<path class="st10" d="M302.2,92.2c0,0,3.4,27.8-8.7,35.3c-12.1,7.5-41.1,0-43-10.7c-2-10.7,0-25.8,0-25.8"/>
	<path class="st11" d="M227.4,91.6c0,2.2-1.8,4-4,4h-53.5c-2.2,0-4-1.8-4-4v-1.1c0-2.2,1.8-4,4-4h53.5c2.2,0,4,1.8,4,4V91.6z"/>
	<path class="st11" d="M245.5,91.6c0,2.2,1.8,4,4,4H303c2.2,0,4-1.8,4-4v-1.1c0-2.2-1.8-4-4-4h-53.5c-2.2,0-4,1.8-4,4V91.6z"/>
</g>
</svg>
