<?xml version="1.0" encoding="utf-8"?>
<!-- Generator: Adobe Illustrator 19.2.0, SVG Export Plug-In . SVG Version: 6.00 Build 0)  -->
<svg version="1.1" id="Objects" xmlns="http://www.w3.org/2000/svg" xmlns:xlink="http://www.w3.org/1999/xlink" x="0px" y="0px"
	 viewBox="0 0 336 232.4" style="enable-background:new 0 0 336 232.4;" xml:space="preserve">
<style type="text/css">
	.st0{fill:url(#SVGID_1_);}
	.st1{fill:#176B82;}
	.st2{font-family:'Roboto-Black';}
	.st3{font-size:41px;}
</style>
<linearGradient id="SVGID_1_" gradientUnits="userSpaceOnUse" x1="297.34" y1="84.938" x2="35.9997" y2="84.938">
	<stop  offset="0" style="stop-color:#00A79D"/>
	<stop  offset="1" style="stop-color:#262262"/>
</linearGradient>
<path class="st0" d="M211.1,0l-23,23l-23-23l-10.3,10.3l74,74.7l-40.7,40.7l-12.4-12.4l28.3-28.3L119.1,0L34.2,84.9l84.9,84.9l23-23
	l23,23l10.5-10.5l-74.3-74.4l40.7-40.7l12.4,12.4l-28.3,28.3l84.9,84.9l84.9-84.9L211.1,0z M80.2,84.9l51.3,51.3l-12.4,12.4
	L55.4,84.9l63.7-63.7l12.4,12.4L80.2,84.9z M147.4,84.9l17.7-17.7l17.7,17.7l-17.7,17.7L147.4,84.9z M198.7,136.3l51.3-51.3
	l-51.3-51.3l12.4-12.4l63.7,63.7l-63.7,63.7L198.7,136.3z"/>
<text transform="matrix(1 0 0 1 9.949684e-02 221.3318)" class="st1 st2 st3">YOUR LOGO HERE</text>
</svg>
