<svg id="Layer_1" xmlns="http://www.w3.org/2000/svg" viewBox="-298 126 102 50"><style>.st0{fill:#FFFFFF;} .st1{fill:#CCCCCC;}</style><title>logo</title><g id="Page-1"><g id="logo"><g id="Munsters"><path id="Shape" class="st0" d="M-289.8 168.5l2.6-16.9h5.2v23.9h-3.6v-17.1l-2.6 17.1h-3.6l-2.8-16.9v16.9h-3.3v-23.9h5.2l2.9 16.9z"/><path id="Shape_1_" class="st0" d="M-276.9 151.6V170c0 1.7.7 2.3 1.9 2.3s1.9-.6 1.9-2.3v-18.4h3.6v18.2c0 3.8-1.9 6-5.6 6s-5.6-2.2-5.6-6v-18.2h3.8z"/><path id="Shape_2_" class="st0" d="M-264.7 158.2v17.3h-3.4v-23.9h4.7l3.9 14.3v-14.3h3.4v23.9h-3.9l-4.7-17.3z"/><path id="Shape_3_" class="st0" d="M-227.7 161.6h5.2v3.4h-5.2v7h6.5v3.4h-10.3v-23.9h10.3v3.4h-6.5v6.7z"/><path id="Shape_4_" class="st0" d="M-212.3 175.5c-.2-.6-.3-1-.3-2.9v-3.7c0-2.2-.7-3-2.5-3h-1.3v9.7h-3.7v-23.9h5.7c3.9 0 5.6 1.8 5.6 5.5v1.9c0 2.5-.8 4.1-2.5 4.9 1.9.8 2.5 2.6 2.5 5.1v3.7c0 1.2 0 2 .4 2.9h-3.9v-.2zm-4.1-20.5v7.3h1.5c1.4 0 2.2-.6 2.2-2.5v-2.4c0-1.7-.6-2.5-1.9-2.5l-1.8.1z"/><path id="Shape_5_" class="st0" d="M-202.1 151.3c3.7 0 5.5 2.2 5.5 6v.9h-3.6V157c0-1.7-.7-2.4-1.9-2.4s-1.9.6-1.9 2.4c0 4.9 7.3 5.8 7.3 12.6 0 3.8-1.9 6-5.6 6s-5.6-2.2-5.6-6V168h3.6v1.9c0 1.7.7 2.3 1.9 2.3s1.9-.6 1.9-2.3c0-4.9-7.3-5.8-7.3-12.6.1-3.8 2-6 5.7-6z"/><path id="Shape_6_" class="st0" d="M-245.7 151.6c1.6.6 2.3 1.9 2.5 3.4h2.8v20.4h3.8V155h3.9v-3.4h-13z"/><path id="Shape_7_" class="st0" d="M-249.4 151.3c3.7 0 5.5 2.2 5.5 6v.9h-3.6V157c0-1.7-.7-2.4-1.9-2.4s-1.9.6-1.9 2.4c0 4.9 7.4 5.8 7.4 12.6 0 3.8-1.9 6-5.6 6s-5.6-2.2-5.6-6V168h3.6v1.9c0 1.7.7 2.3 1.9 2.3s1.9-.6 1.9-2.3c0-4.9-7.4-5.8-7.4-12.6.2-3.8 2.1-6 5.7-6z"/></g><g id="By"><path id="Shape_8_" class="st1" d="M-235.26 139.575v.5c0 1.4-.4 2.4-1.4 2.8 1.2.4 1.6 1.5 1.6 3v1.1c0 2.2-1.1 3.3-3.3 3.3h-3.4v-13.9h3.3c2.2 0 3.2 1 3.2 3.2zm-4.4-1.2v3.7h.9c.8 0 1.3-.4 1.3-1.5v-.8c0-1-.3-1.4-1.1-1.4h-1.1zm0 5.6v4.3h1.3c.7 0 1.1-.3 1.1-1.4v-1.2c0-1.3-.4-1.7-1.4-1.7h-1z"/><path id="Shape_9_" class="st1" d="M-232.06 145.675l-2.8-9.3h2.3l1.7 6.3 1.7-6.3h2.1l-2.8 9.3v4.6h-2.2v-4.6z"/></g><g id="Made"><path id="Shape_10_" class="st0" d="M-289.8 143.4l2.6-16.9h5.2v23.9h-3.6v-17.1l-2.6 17.1h-3.6l-2.8-16.9v16.9h-3.3v-23.9h5.2l2.9 16.9z"/><path id="Shape_11_" class="st0" d="M-267 126.4h6c3.8 0 5.6 2.1 5.6 5.9v12.1c0 3.8-1.8 5.9-5.6 5.9h-6v-23.9zm3.7 3.4v17.1h2.1c1.2 0 1.9-.6 1.9-2.3v-12.4c0-1.7-.7-2.3-1.9-2.3h-2.1v-.1z"/><path id="Shape_12_" class="st0" d="M-250.5 136.4h5.2v3.4h-5.2v7h6.5v3.4h-10.3v-23.9h10.3v3.4h-6.5v6.7z"/><path id="Shape_13_" class="st0" d="M-271.8 126.4h-5.5l-3.9 23.9h3.5l.6-4.4.5-3.2 1.8-12.1 1.8 12.1h-3l-.4 3.2h3.9l.6 4.4h3.8l-3.7-23.9z"/></g></g></g></svg>