<?xml version="1.0" encoding="utf-8"?>
<!-- Generator: Adobe Illustrator 19.2.0, SVG Export Plug-In . SVG Version: 6.00 Build 0)  -->
<svg version="1.1" id="Objects" xmlns="http://www.w3.org/2000/svg" xmlns:xlink="http://www.w3.org/1999/xlink" x="0px" y="0px"
	 viewBox="0 0 659.6 269.8" style="enable-background:new 0 0 659.6 269.8;" xml:space="preserve">
<style type="text/css">
	.st0{fill:#E6E7E8;}
	.st1{fill:#273244;}
	.st2{fill:#041728;}
	.st3{fill:#231F20;}
	.st4{fill:#22313D;}
	.st5{fill:#2A3B47;}
	.st6{fill:#472910;}
	.st7{fill:#EF7768;}
	.st8{fill:#FFDAA2;}
	.st9{fill:#784E26;}
	.st10{fill:#D86964;}
	.st11{fill:#C5564D;}
	.st12{fill:#E16C60;}
	.st13{fill:#FFFFFF;}
	.st14{fill:#BCBCBC;}
	.st15{fill:#A25016;}
	.st16{fill:#99C978;}
	.st17{fill:#8DB76C;}
	.st18{fill:#F9FDFF;}
	.st19{fill:#1D2A3D;}
	.st20{fill:#2D3E50;}
	.st21{fill:#243547;}
	.st22{fill:#F7DC4C;}
	.st23{fill:#C4996C;}
	.st24{fill:#6C9E4C;}
	.st25{fill:#8C8C8C;}
</style>
<g id="Design">
	<g id="business">
		<g>
			<g>
				<g>
					<rect x="155.4" y="177.4" class="st0" width="6.9" height="49.1"/>
					<polygon class="st0" points="134.3,236.7 131.3,236.7 155.4,226.5 159.7,231.6 					"/>
					<polygon class="st0" points="182.3,236.7 186.5,236.7 162.4,226.5 158.1,231.6 					"/>
					<rect x="155.4" y="226.5" class="st0" width="6.9" height="4.4"/>
					<polygon class="st0" points="160.4,239.8 157.4,239.8 156.1,225.1 161.7,225.1 					"/>
					<rect x="131.3" y="236.7" class="st0" width="3.1" height="3.1"/>
					<rect x="183.5" y="236.7" class="st0" width="3.1" height="3.1"/>
					<g>
						<polyline class="st1" points="133.1,180.9 184.6,180.9 184.6,172.8 133.1,172.8 						"/>
						<polyline class="st2" points="133.1,180.9 184.6,180.9 184.6,177.4 133.1,177.4 						"/>
						<polyline class="st2" points="133.1,172.8 184.6,172.8 184.6,98.7 133.1,98.7 						"/>
					</g>
					<rect x="149.7" y="180.8" class="st2" width="18.3" height="3.7"/>
					<ellipse class="st3" cx="132.5" cy="239.9" rx="1.9" ry="1.9"/>
					<ellipse class="st3" cx="158.7" cy="239.9" rx="1.9" ry="1.9"/>
					<ellipse class="st3" cx="184.9" cy="239.9" rx="1.9" ry="1.9"/>
				</g>
				<g>
					<path class="st4" d="M141.7,143.8c0,0-12.8,12.9,0,29c16.7,0,36.2,0,36.2,0s5.1-5.6,5-14.5c-0.1-7.5-6-14.5-6-14.5H141.7z"/>
					<path class="st5" d="M152.7,237.3c0,0,7-75.7,7-76.3c0-0.6-1-12-10.5-12c-9.4,0-12.1,6.4-12.1,13.5c0,7.1,3.5,74.8,3.5,74.8
						H152.7z"/>
					<path class="st5" d="M176.6,237.3c0,0,7-75.7,7-76.3c0-0.6-1-12-10.5-12c-9.4,0-12.1,6.4-12.1,13.5c0,7.1,3.5,74.8,3.5,74.8
						H176.6z"/>
					<path class="st6" d="M181,241.8c0,3.4-4.1,3.5-9.1,3.5s-9.1-0.1-9.1-3.5c0-3.4,4.1-8.1,9.1-8.1S181,238.4,181,241.8z"/>
					<path class="st6" d="M155,241.8c0,3.4-4.1,3.5-9.1,3.5s-9.1-0.1-9.1-3.5c0-3.4,4.1-8.1,9.1-8.1S155,238.4,155,241.8z"/>
				</g>
				<polygon class="st7" points="141.4,128.7 141.7,143.8 176.8,143.8 177.7,128.7 				"/>
			</g>
			<g>
				<polyline class="st8" points="156.7,87.9 156.7,65.1 166.2,50 166.2,92.2 				"/>
				<g>
					<path class="st8" d="M175.4,59.7c0,7.6-6.2,13.8-13.8,13.8l0,0c-7.6,0-13.8-6.2-13.8-13.8v-8.8c0-7.6,6.2-13.8,13.8-13.8l0,0
						c7.6,0,13.8,6.2,13.8,13.8V59.7z"/>
				</g>
				<path class="st7" d="M141.7,118.9l-1.2-41.7c0,0,4.9-1.8,16.3-2.1l5.1,7.1l4.2-7.1c5.5,0.2,14.5,3.1,14.5,3.1l-3.8,40.6H141.7z"
					/>
				<path class="st9" d="M149.8,59.2c0,0-4.7-2.2-5.9-7.3c-1.7-7.1,0.2-14,3.9-13.4c1.8,3.2,2.8,3.9,2.8,3.9S149.1,55.8,149.8,59.2z
					"/>
				<path class="st9" d="M151,42.7c0,0,4.8,3.7,14.2,3.7c9.3,0,15.9-8.6,13.9-15.8c-3,2.7-9.5,3.2-14.9,1.3
					c-5.4-1.9-11-1.9-14.5,0.9C146.1,35.6,147.4,40.5,151,42.7z"/>
				<path class="st9" d="M151.8,43c0,0-3.4,6.2-2.3,10.6c-2.7-3.4-3.5-8.5-3.5-8.5l2.1-6.4L151.8,43z"/>
				<path class="st9" d="M170.9,42.8c0,0,4,1.5,3.6,7.9c3.9-4.5,2-9.9,2-9.9l-1.9-2.3L170.9,42.8z"/>
				<path class="st10" d="M140.5,77.2c0,0-24.5,36.7-13,41.7c17.2,0,29.2,0,29.2,0l-0.2-5.6c0,0-19.5-0.3-21.4-3.3
					c-1.9-3.1,6-10.3,6-10.3"/>
				<path class="st10" d="M180.6,78.2c0,0,19,35.6,7.5,40.6c-17.2,0-29.2,0-29.2,0l1.9-5.5c0,0,18.8,0,20.7-3
					c1.9-3.1-3.1-9.2-3.1-9.2"/>
				<path class="st8" d="M156.3,118.7c0,0,6.7,0.8,7.5-0.6c0.3-0.4-0.3-0.7-0.7-0.7c0.9-0.3,1.2-0.3,1.2-0.8c0-0.5-1.3-0.7-1.3-0.7
					s1.6-0.1,1.6-0.8c0-0.8-1.4-0.7-1.4-0.7s1.5,0,1.4-0.7c0-0.7-0.6-0.7-1.2-0.7c-0.6,0-3.8,0.5-3.8,0.5s1.8-0.8,2.8-1
					c1-0.2,1.1-1.3-0.9-1c-2,0.3-5,1.9-5,1.9L156.3,118.7z"/>
			</g>
		</g>
		<g>
			<g>
				<g>
					<rect x="289.4" y="177.4" class="st0" width="6.9" height="49.1"/>
					<polygon class="st0" points="268.3,236.7 265.3,236.7 289.4,226.5 293.7,231.6 					"/>
					<polygon class="st0" points="316.3,236.7 320.5,236.7 296.4,226.5 292.1,231.6 					"/>
					<rect x="289.4" y="226.5" class="st0" width="6.9" height="4.4"/>
					<polygon class="st0" points="294.4,239.8 291.4,239.8 290.1,225.1 295.7,225.1 					"/>
					<rect x="265.3" y="236.7" class="st0" width="3.1" height="3.1"/>
					<rect x="317.5" y="236.7" class="st0" width="3.1" height="3.1"/>
					<g>
						<polyline class="st1" points="267.1,180.9 318.6,180.9 318.6,172.8 267.1,172.8 						"/>
						<polyline class="st2" points="267.1,180.9 318.6,180.9 318.6,177.4 267.1,177.4 						"/>
						<polyline class="st2" points="267.1,172.8 318.6,172.8 318.6,98.7 267.1,98.7 						"/>
					</g>
					<rect x="283.7" y="180.8" class="st2" width="18.3" height="3.7"/>
					<ellipse class="st3" cx="266.5" cy="239.9" rx="1.9" ry="1.9"/>
					<ellipse class="st3" cx="292.7" cy="239.9" rx="1.9" ry="1.9"/>
					<ellipse class="st3" cx="318.9" cy="239.9" rx="1.9" ry="1.9"/>
				</g>
				<g>
					<path class="st11" d="M275.7,143.8c0,0-12.8,12.9,0,29c16.7,0,36.2,0,36.2,0s5.1-5.6,5-14.5c-0.1-7.5-6-14.5-6-14.5H275.7z"/>
					<path class="st12" d="M286.7,237.3c0,0,7-75.7,7-76.3c0-0.6-1-12-10.5-12c-9.4,0-12.1,6.4-12.1,13.5c0,7.1,3.5,74.8,3.5,74.8
						H286.7z"/>
					<path class="st12" d="M310.6,237.3c0,0,7-75.7,7-76.3c0-0.6-1-12-10.5-12c-9.4,0-12.1,6.4-12.1,13.5c0,7.1,3.5,74.8,3.5,74.8
						H310.6z"/>
					<path class="st6" d="M315,241.8c0,3.4-4.1,3.5-9.1,3.5c-5,0-9.1-0.1-9.1-3.5c0-3.4,4.1-8.1,9.1-8.1
						C310.9,233.7,315,238.4,315,241.8z"/>
					<path class="st6" d="M289,241.8c0,3.4-4.1,3.5-9.1,3.5c-5,0-9.1-0.1-9.1-3.5c0-3.4,4.1-8.1,9.1-8.1
						C284.9,233.7,289,238.4,289,241.8z"/>
				</g>
				<polygon class="st13" points="275.4,128.7 275.7,143.8 310.8,143.8 311.7,128.7 				"/>
			</g>
			<g>
				<polyline class="st8" points="290.7,87.9 290.7,65.1 300.2,50 300.2,92.2 				"/>
				<g>
					<path class="st8" d="M309.4,59.7c0,7.6-6.2,13.8-13.8,13.8l0,0c-7.6,0-13.8-6.2-13.8-13.8v-8.8c0-7.6,6.2-13.8,13.8-13.8l0,0
						c7.6,0,13.8,6.2,13.8,13.8V59.7z"/>
				</g>
				<path class="st13" d="M275.7,118.9l-1.2-41.7c0,0,4.9-1.8,16.3-2.1l5.1,7.1l4.2-7.1c5.5,0.2,14.5,3.1,14.5,3.1l-3.8,40.6H275.7z
					"/>
				<path class="st9" d="M285.8,43c0,0-3.4,6.2-2.3,10.6c-2.7-3.4-3.5-8.5-3.5-8.5l2.1-6.4L285.8,43z"/>
				<path class="st9" d="M304.9,42.8c0,0,4,1.5,3.6,7.9c3.9-4.5,2-9.9,2-9.9l-1.9-2.3L304.9,42.8z"/>
				<path class="st14" d="M274.5,77.2c0,0-24.5,36.7-13,41.7c17.2,0,29.2,0,29.2,0l-0.2-5.6c0,0-19.5-0.3-21.4-3.3
					c-1.9-3.1,6-10.3,6-10.3"/>
				<path class="st14" d="M314.6,78.2c0,0,19,35.6,7.5,40.6c-17.2,0-29.2,0-29.2,0l1.9-5.5c0,0,18.8,0,20.7-3
					c1.9-3.1-3.1-9.2-3.1-9.2"/>
				<path class="st8" d="M290.3,118.7c0,0,6.7,0.8,7.5-0.6c0.3-0.4-0.3-0.7-0.7-0.7c0.9-0.3,1.2-0.3,1.2-0.8s-1.3-0.7-1.3-0.7
					s1.6-0.1,1.6-0.8c0-0.8-1.4-0.7-1.4-0.7s1.5,0,1.4-0.7c0-0.7-0.6-0.7-1.2-0.7c-0.6,0-3.8,0.5-3.8,0.5s1.8-0.8,2.8-1
					c1-0.2,1.1-1.3-0.9-1c-2,0.3-5,1.9-5,1.9L290.3,118.7z"/>
				<g>
					<g>
						<path class="st8" d="M308.9,60.2c0,7.6-6.2,13.8-13.7,13.8l0,0c-7.6,0-13.8-6.2-13.8-13.8v-8.8c0-7.6,6.2-13.8,13.8-13.8l0,0
							c7.6,0,13.7,6.2,13.7,13.8V60.2z"/>
					</g>
					<path class="st15" d="M282.2,52.8c0,0,23.8,0,23.5-11.7c-0.2-11.7-13.4-11.1-20.1-6.3C279.1,39.6,274.7,52,282.2,52.8z"/>
					<path class="st15" d="M301.8,45.1c0,0,5.5,2.3,7.1,8.7c2.8-3.3,5.7-8,2.8-13.3c-2-3.7-6-6.3-8.1-4.6
						C303.7,40.7,301.8,45.1,301.8,45.1z"/>
				</g>
			</g>
		</g>
		<g>
			<g>
				<g>
					<rect x="426.9" y="177.4" class="st0" width="6.9" height="49.1"/>
					<polygon class="st0" points="405.8,236.7 402.7,236.7 426.9,226.5 431.2,231.6 					"/>
					<polygon class="st0" points="453.7,236.7 458,236.7 433.8,226.5 429.6,231.6 					"/>
					<rect x="426.9" y="226.5" class="st0" width="6.9" height="4.4"/>
					<polygon class="st0" points="431.9,239.8 428.8,239.8 427.5,225.1 433.2,225.1 					"/>
					<rect x="402.7" y="236.7" class="st0" width="3.1" height="3.1"/>
					<rect x="454.9" y="236.7" class="st0" width="3.1" height="3.1"/>
					<g>
						<polyline class="st1" points="404.6,180.9 456.1,180.9 456.1,172.8 404.6,172.8 						"/>
						<polyline class="st2" points="404.6,180.9 456.1,180.9 456.1,177.4 404.6,177.4 						"/>
						<polyline class="st2" points="404.6,172.8 456.1,172.8 456.1,98.7 404.6,98.7 						"/>
					</g>
					<rect x="421.2" y="180.8" class="st2" width="18.3" height="3.7"/>
					<ellipse class="st3" cx="403.9" cy="239.9" rx="1.9" ry="1.9"/>
					<ellipse class="st3" cx="430.2" cy="239.9" rx="1.9" ry="1.9"/>
					<ellipse class="st3" cx="456.4" cy="239.9" rx="1.9" ry="1.9"/>
				</g>
				<g>
					<path class="st4" d="M413.1,143.8c0,0-12.8,12.9,0,29c16.7,0,36.2,0,36.2,0s5.1-5.6,5-14.5c-0.1-7.5-6-14.5-6-14.5H413.1z"/>
					<path class="st5" d="M424.2,237.3c0,0,7-75.7,7-76.3c0-0.6-1-12-10.5-12c-9.4,0-12.1,6.4-12.1,13.5c0,7.1,3.5,74.8,3.5,74.8
						H424.2z"/>
					<path class="st5" d="M448.1,237.3c0,0,7-75.7,7-76.3c0-0.6-1-12-10.5-12c-9.4,0-12.1,6.4-12.1,13.5c0,7.1,3.5,74.8,3.5,74.8
						H448.1z"/>
					<path class="st6" d="M452.4,241.8c0,3.4-4.1,3.5-9.1,3.5c-5,0-9.1-0.1-9.1-3.5c0-3.4,4.1-8.1,9.1-8.1
						C448.4,233.7,452.4,238.4,452.4,241.8z"/>
					<path class="st6" d="M426.4,241.8c0,3.4-4.1,3.5-9.1,3.5c-5,0-9.1-0.1-9.1-3.5c0-3.4,4.1-8.1,9.1-8.1
						C422.4,233.7,426.4,238.4,426.4,241.8z"/>
				</g>
				<polygon class="st16" points="412.8,128.7 413.1,143.8 448.2,143.8 449.1,128.7 				"/>
			</g>
			<g>
				<polyline class="st8" points="428.2,87.9 428.2,65.1 437.7,50 437.7,92.2 				"/>
				<g>
					<path class="st8" d="M446.8,59.7c0,7.6-6.2,13.8-13.8,13.8l0,0c-7.6,0-13.8-6.2-13.8-13.8v-8.8c0-7.6,6.2-13.8,13.8-13.8l0,0
						c7.6,0,13.8,6.2,13.8,13.8V59.7z"/>
				</g>
				<path class="st16" d="M413.1,118.9l-1.2-41.7c0,0,4.9-1.8,16.3-2.1l5.1,7.1l4.2-7.1c5.5,0.2,14.5,3.1,14.5,3.1l-3.8,40.6H413.1z
					"/>
				<path class="st9" d="M421.3,59.2c0,0-4.7-2.2-5.9-7.3c-1.7-7.1,0.2-14,3.9-13.4c1.8,3.2,2.8,3.9,2.8,3.9S420.6,55.8,421.3,59.2z
					"/>
				<path class="st9" d="M422.5,42.7c0,0,4.8,3.7,14.2,3.7c9.3,0,15.9-8.6,13.9-15.8c-3,2.7-9.5,3.2-14.9,1.3
					c-5.4-1.9-11-1.9-14.5,0.9C417.6,35.6,418.9,40.5,422.5,42.7z"/>
				<path class="st9" d="M423.2,43c0,0-3.4,6.2-2.3,10.6c-2.7-3.4-3.5-8.5-3.5-8.5l2.1-6.4L423.2,43z"/>
				<path class="st9" d="M442.4,42.8c0,0,4,1.5,3.6,7.9c3.9-4.5,2-9.9,2-9.9l-1.9-2.3L442.4,42.8z"/>
				<path class="st17" d="M411.9,77.2c0,0-24.5,36.7-13,41.7c17.2,0,29.2,0,29.2,0l-0.2-5.6c0,0-19.5-0.3-21.4-3.3
					c-1.9-3.1,6-10.3,6-10.3"/>
				<path class="st17" d="M452.1,78.2c0,0,19,35.6,7.5,40.6c-17.2,0-29.2,0-29.2,0l1.9-5.5c0,0,18.8,0,20.7-3s-3.1-9.2-3.1-9.2"/>
				<path class="st8" d="M427.8,118.7c0,0,6.7,0.8,7.5-0.6c0.3-0.4-0.3-0.7-0.7-0.7c0.9-0.3,1.2-0.3,1.2-0.8s-1.3-0.7-1.3-0.7
					s1.6-0.1,1.6-0.8c0-0.8-1.4-0.7-1.4-0.7s1.5,0,1.4-0.7c0-0.7-0.6-0.7-1.2-0.7c-0.6,0-3.8,0.5-3.8,0.5s1.8-0.8,2.8-1
					c1-0.2,1.1-1.3-0.9-1c-2,0.3-5,1.9-5,1.9L427.8,118.7z"/>
			</g>
		</g>
		<g>
			<g>
				<rect x="53.9" y="177.3" class="st18" width="7.7" height="54.6"/>
				<polygon class="st18" points="30.4,243.2 27,243.2 53.9,231.9 58.6,237.6 				"/>
				<polygon class="st18" points="83.7,243.2 88.5,243.2 61.6,231.9 56.8,237.6 				"/>
				<rect x="53.9" y="231.9" class="st18" width="7.7" height="4.8"/>
				<polygon class="st18" points="59.4,246.7 56,246.7 54.6,230.4 60.8,230.4 				"/>
				<rect x="27" y="243.2" class="st18" width="3.4" height="3.5"/>
				<rect x="85" y="243.2" class="st18" width="3.4" height="3.5"/>
				<g>
					<polygon class="st19" points="0,98.7 27.1,181.2 85,181.2 85,172.2 34.8,172.2 9.6,99.6 					"/>
					<polygon class="st2" points="29.8,177.3 3.8,99.1 0,98.7 27.1,181.2 85,181.2 85,177.3 					"/>
				</g>
				<rect x="47.6" y="181.1" class="st2" width="20.3" height="4.2"/>
				<circle class="st3" cx="28.7" cy="247" r="2.1"/>
				<circle class="st3" cx="57.7" cy="247" r="2.1"/>
				<circle class="st3" cx="86.8" cy="247" r="2.1"/>
			</g>
			<g>
				<path class="st20" d="M145.5,235.7l-26.6-80.2c-2-3-5.4-4.9-9-4.9c0,0-15.2-1.5-35.7-2c-8.3-0.2-15-3.7-15.7-4.2H32.1
					c0,0.2-1.5,27.7,32.4,27.7c13.9,0,32,0,39.7,0l27.7,66L145.5,235.7z"/>
				<path class="st3" d="M145.5,235.7c0,0,9.4,2.8,12.9,3c4.6,0.3,5.7,5.8,5.7,5.8h-31.3c0,0-1.5-3.2-1-6.5c5.9-1,12.9-2.3,12.9-2.3
					"/>
				<polyline class="st8" points="44.5,76.7 47.3,54.7 60.2,39.3 53.3,83.2 				"/>
				<g>
					<path class="st8" d="M75.8,48.4c0,0-2,28.2-14.1,28.2c-7.6,0-12.8-4.8-12.8-13.4l1.2-14.9"/>
					<path class="st21" d="M52.9,48.4c0,0,17,6.1,23.8,0c6.9-6.1-3.1-13-13.9-13c-10.8,0-13.9,4.9-13.9,4.9L52.9,48.4z"/>
					<path class="st21" d="M48.9,40.3c0,0-4.1,0.2-5.6,3.8c-1.4,3.6-0.5,18.8,2.4,22.5c0.4-3.8,3.9-11,6.3-13.1
						c2.5-2.2,4.1-1.8,5.5,2.3c-0.8-5.1-0.4-7.3-0.4-7.3L48.9,40.3z"/>
				</g>
				<path class="st21" d="M52.1,53.4c0,0-2.6,4.1,0.3,11.2c-4.3,0.8-6.6,1.9-6.6,1.9s-2.1-4,0-7.2C47.8,56.2,52.1,53.4,52.1,53.4z"
					/>
				<path class="st22" d="M32.1,144.3c0,0-3.8-37,0-55.3c3.8-18.3,25.6-17.4,28.8,0c3.1,17.4-4.9,29.4-4.5,36.6
					c0.4,7.1,2.1,18.7,2.1,18.7H32.1z"/>
				<path class="st22" d="M116.9,112.4c0,0-38.7-3.2-54-21.6c-12.4-14.8-22.5,0-10,10c13,10.4,34.5,17.9,63.8,17.1
					C116.8,116.7,116.9,112.4,116.9,112.4z"/>
				<path class="st8" d="M116.7,118c0,0,6.7,0.8,7.5-0.6c0.3-0.4-0.3-0.7-0.7-0.7c0.9-0.3,1.2-0.3,1.2-0.8c0-0.5-1.3-0.7-1.3-0.7
					s1.6-0.1,1.6-0.8c0-0.8-1.4-0.7-1.4-0.7s1.5,0,1.4-0.7c0-0.7-0.6-0.7-1.2-0.7c-0.6,0-3.8,0.5-3.8,0.5s1.8-0.8,2.8-1
					c1-0.2,1.1-1.3-0.9-1c-2,0.3-5,1.9-5,1.9L116.7,118z"/>
			</g>
			<polygon class="st19" points="74.8,176 61.3,141.2 20,141.2 20,136.2 64.7,136.2 79.5,174.2 			"/>
		</g>
		<g>
			<g>
				<rect x="598" y="177.3" class="st18" width="7.7" height="54.6"/>
				<polygon class="st18" points="629.2,243.2 632.6,243.2 605.7,231.9 601,237.6 				"/>
				<polygon class="st18" points="575.9,243.2 571.1,243.2 598,231.9 602.7,237.6 				"/>
				<rect x="598" y="231.9" class="st18" width="7.7" height="4.8"/>
				<polygon class="st18" points="600.1,246.7 603.5,246.7 605,230.4 598.7,230.4 				"/>
				<rect x="629.2" y="243.2" class="st18" width="3.4" height="3.5"/>
				<rect x="571.1" y="243.2" class="st18" width="3.4" height="3.5"/>
				<g>
					<polygon class="st1" points="659.6,98.7 632.4,181.2 574.5,181.2 574.5,172.2 624.8,172.2 650,99.6 					"/>
					<polygon class="st2" points="629.8,177.3 655.8,99.1 659.6,98.7 632.4,181.2 574.5,181.2 574.5,177.3 					"/>
				</g>
				<rect x="591.7" y="181.1" class="st2" width="20.3" height="4.2"/>
				<circle class="st3" cx="630.9" cy="247" r="2.1"/>
				<circle class="st3" cx="601.8" cy="247" r="2.1"/>
				<circle class="st3" cx="572.8" cy="247" r="2.1"/>
			</g>
			<g>
				<path class="st20" d="M514.1,235.7l26.6-80.2c2-3,5.4-4.9,9-4.9c0,0,15.2-1.5,35.7-2c8.3-0.2,15-3.7,15.7-4.2h26.4
					c0,0.2,1.5,27.7-32.4,27.7c-13.9,0-32,0-39.7,0l-27.7,66L514.1,235.7z"/>
				<path class="st3" d="M514.1,235.7c0,0-9.4,2.8-12.9,3c-4.6,0.3-5.7,5.8-5.7,5.8h31.3c0,0,1.5-3.2,1-6.5
					c-5.9-1-12.9-2.3-12.9-2.3"/>
				<polyline class="st8" points="615.1,76.7 612.3,54.7 599.4,39.3 606.3,83.2 				"/>
				<g>
					<path class="st8" d="M583.7,48.4c0,0,2,28.2,14.1,28.2c7.6,0,12.8-4.8,12.8-13.4l-1.2-14.9"/>
					<path class="st3" d="M606.7,48.4c0,0-17,6.1-23.8,0c-6.9-6.1,3.1-13,13.9-13c10.8,0,13.9,4.9,13.9,4.9L606.7,48.4z"/>
					<path class="st3" d="M610.7,40.3c0,0-1.4-6.2-7.1-7.3c-5.8-1-17.7,4.1-27.5-3.3c-1.3,15.5,3.9,20.7,14.4,21.4"/>
					<path class="st3" d="M610.7,40.3c0,0,4.1,0.2,5.6,3.8c1.4,3.6,0.5,18.8-2.4,22.5c-0.4-3.8-3.9-11-6.3-13.1
						c-2.5-2.2-4.1-1.8-5.5,2.3c0.8-5.1,0.4-7.3,0.4-7.3L610.7,40.3z"/>
				</g>
				<path class="st3" d="M607.5,53.4c0,0,2.6,4.1-0.3,11.2c4.3,0.8,6.6,1.9,6.6,1.9s2.1-4,0-7.2C611.8,56.2,607.5,53.4,607.5,53.4z"
					/>
				<path class="st22" d="M627.5,144.3c0,0,3.8-37,0-55.3c-3.8-18.3-25.7-17.4-28.8,0c-3.1,17.4,4.9,29.4,4.5,36.6
					c-0.4,7.1-2.1,18.7-2.1,18.7H627.5z"/>
				<path class="st22" d="M542.7,112.4c0,0,38.7-3.2,54-21.6c12.4-14.8,22.5,0,10,10c-13,10.4-34.5,17.9-63.8,17.1
					C542.8,116.7,542.7,112.4,542.7,112.4z"/>
				<path class="st8" d="M542.8,118c0,0-6.7,0.8-7.5-0.6c-0.3-0.4,0.3-0.7,0.7-0.7c-0.9-0.3-1.2-0.3-1.2-0.8c0-0.5,1.2-0.7,1.2-0.7
					s-1.6-0.1-1.6-0.8c0-0.8,1.4-0.7,1.4-0.7s-1.5,0-1.4-0.7c0-0.7,0.6-0.7,1.2-0.7c0.6,0,3.8,0.5,3.8,0.5s-1.8-0.8-2.8-1
					c-1-0.2-1.1-1.3,0.9-1c2,0.3,5,1.9,5,1.9L542.8,118z"/>
			</g>
			<polygon class="st19" points="584.6,176 598.2,141.2 640,141.2 640,136.2 594.8,136.2 580,174.2 			"/>
		</g>
		<g>
			<rect x="82" y="118.9" class="st18" width="10.7" height="131.9"/>
			<rect x="576.1" y="118.9" class="st18" width="10.7" height="131.9"/>
			<rect x="82" y="118.9" class="st23" width="504.8" height="9.8"/>
		</g>
		<g>
			<g>
				<g>
					<polyline class="st8" points="218,95.5 218,68.1 229.2,50.1 229.2,100.6 					"/>
					<g>
						<path class="st8" d="M240.3,61.7c0,9.1-7.4,16.5-16.5,16.5l0,0c-9.1,0-16.5-7.4-16.5-16.5V51.1c0-9.1,7.4-16.5,16.5-16.5l0,0
							c9.1,0,16.5,7.4,16.5,16.5V61.7z"/>
					</g>
					<path class="st13" d="M199.9,132.6l0.6-50.5c0,0,3.9-1.6,17.4-1.9l6.1,8.5l5.1-8.5c6.6,0.3,15.2,3.1,15.2,3.1l-2.4,49.3H199.9z
						"/>
				</g>
				<ellipse class="st3" cx="223.7" cy="53.5" rx="20.8" ry="21.9"/>
				<polygon class="st13" points="229.2,80.1 229.2,78.8 218,78.8 218,80.1 223.9,90.1 				"/>
				<path class="st13" d="M200.5,82.1c0,0-24.5,32-13,36.5c17.2,0,29.2,0,29.2,0l-1.9-4.7c0,0-17.8-0.3-19.7-3.1
					C193.2,108,210.2,91,210.2,91"/>
				<path class="st13" d="M244.4,83.2c0,0,24,30.8,12.5,35.4c-17.2,0-29.2,0-29.2,0l1.9-4.7c0,0,17.8-0.3,19.7-3.1
					c1.9-2.8-15.1-19.8-15.1-19.8"/>
			</g>
			<g>
				<g>
					<path class="st3" d="M242.6,244.6c0,0,7.9,2.8,10.9,3.1c3.9,0.3,4.8,5.9,4.8,5.9h-26.4c0,0-1.3-3.3-0.8-6.6
						c5-1,10.9-2.3,10.9-2.3"/>
					<path class="st3" d="M203.3,244.6c0,0-7.9,2.8-10.9,3.1c-3.9,0.3-4.8,5.9-4.8,5.9H214c0,0,1.3-3.3,0.8-6.6
						c-5-1-10.9-2.3-10.9-2.3"/>
					<path class="st24" d="M214.9,247.1c0,0,7.3-76.8,7.3-77.5s-1.1-12.2-10.9-12.2c-9.8,0-12.6,6.5-12.6,13.7c0,7.2,3.6,76,3.6,76
						H214.9z"/>
					<path class="st24" d="M243.4,247.1c0,0,7.2-76.8,7.2-77.5s-1.1-12.2-10.8-12.2c-9.8,0-12.5,6.5-12.5,13.7c0,7.2,3.6,76,3.6,76
						H243.4z"/>
				</g>
				<g>
					<g>
						<rect x="218.8" y="191.8" class="st0" width="8.3" height="59.5"/>
						<polygon class="st0" points="193.7,263.6 190.1,263.6 218.8,251.3 223.9,257.5 						"/>
						<polygon class="st0" points="250.7,263.6 255.8,263.6 227.1,251.3 222,257.5 						"/>
						<rect x="218.8" y="251.3" class="st0" width="8.3" height="5.3"/>
						<polygon class="st0" points="224.8,267.4 221.1,267.4 219.6,249.6 226.3,249.6 						"/>
						<rect x="190.1" y="263.6" class="st0" width="3.6" height="3.8"/>
						<rect x="252.1" y="263.6" class="st0" width="3.7" height="3.8"/>
						<g>
							<polyline class="st2" points="192.3,196.1 253.5,196.1 253.5,191.8 192.3,191.8 							"/>
							<polyline class="st2" points="192.3,191.8 253.5,191.8 253.5,100.9 192.3,100.9 							"/>
						</g>
						<rect x="212.1" y="196" class="st2" width="21.7" height="4.5"/>
						<ellipse class="st3" cx="191.5" cy="267.5" rx="2.3" ry="2.4"/>
						<ellipse class="st3" cx="222.7" cy="267.5" rx="2.3" ry="2.4"/>
						<ellipse class="st3" cx="253.9" cy="267.5" rx="2.3" ry="2.4"/>
					</g>
				</g>
			</g>
			<path class="st3" d="M205.5,57.7c0,0,1.1-6.6,9.5-7.4c8.4-0.8,14.7-4.3,16.6-8.3c4.9,3.3,9.9,7.3,10.3,15.6
				c3.7-5.7,5.3-20.3-7-22.9c-11-11-22.9-6.4-28.7,0.9C197.7,46.6,205.5,57.7,205.5,57.7z"/>
		</g>
		<g>
			<g>
				<g>
					<polyline class="st8" points="489.8,95.5 489.8,68.1 501,50.1 501,100.6 					"/>
					<g>
						<path class="st8" d="M512.1,61.7c0,9.1-7.4,16.5-16.5,16.5l0,0c-9.1,0-16.5-7.4-16.5-16.5V51.1c0-9.1,7.4-16.5,16.5-16.5l0,0
							c9.1,0,16.5,7.4,16.5,16.5V61.7z"/>
					</g>
					<path class="st13" d="M471.8,132.6l0.6-50.5c0,0,3.9-1.6,17.4-1.9l6.1,8.5l5.1-8.5c6.6,0.3,15.2,3.1,15.2,3.1l-2.4,49.3H471.8z
						"/>
				</g>
				<ellipse class="st25" cx="495.5" cy="53.5" rx="20.8" ry="21.9"/>
				<polygon class="st13" points="501,80.1 501,78.8 489.8,78.8 489.8,80.1 495.7,90.1 				"/>
				<path class="st13" d="M472.3,82.1c0,0-24.5,32-13,36.5c17.2,0,29.2,0,29.2,0l-1.9-4.7c0,0-17.8-0.3-19.7-3.1
					C465,108,482,91,482,91"/>
				<path class="st13" d="M516.2,83.2c0,0,24,30.8,12.5,35.4c-17.2,0-29.2,0-29.2,0l1.9-4.7c0,0,17.8-0.3,19.7-3.1
					C523.1,108,506,91,506,91"/>
			</g>
			<g>
				<g>
					<path class="st3" d="M514.4,244.6c0,0,7.9,2.8,10.9,3.1c3.9,0.3,4.8,5.9,4.8,5.9h-26.4c0,0-1.3-3.3-0.8-6.6
						c5-1,10.9-2.3,10.9-2.3"/>
					<path class="st3" d="M475.1,244.6c0,0-7.9,2.8-10.9,3.1c-3.9,0.3-4.8,5.9-4.8,5.9h26.4c0,0,1.3-3.3,0.8-6.6
						c-5-1-10.9-2.3-10.9-2.3"/>
					<path class="st20" d="M486.8,247.1c0,0,7.3-76.8,7.3-77.5s-1.1-12.2-10.9-12.2c-9.8,0-12.6,6.5-12.6,13.7c0,7.2,3.6,76,3.6,76
						H486.8z"/>
					<path class="st20" d="M515.2,247.1c0,0,7.2-76.8,7.2-77.5s-1.1-12.2-10.8-12.2c-9.8,0-12.5,6.5-12.5,13.7c0,7.2,3.6,76,3.6,76
						H515.2z"/>
				</g>
				<g>
					<g>
						<rect x="490.6" y="191.8" class="st0" width="8.3" height="59.5"/>
						<polygon class="st0" points="465.5,263.6 461.9,263.6 490.6,251.3 495.7,257.5 						"/>
						<polygon class="st0" points="522.5,263.6 527.6,263.6 498.9,251.3 493.8,257.5 						"/>
						<rect x="490.6" y="251.3" class="st0" width="8.3" height="5.3"/>
						<polygon class="st0" points="496.6,267.4 492.9,267.4 491.4,249.6 498.1,249.6 						"/>
						<rect x="461.9" y="263.6" class="st0" width="3.6" height="3.8"/>
						<rect x="523.9" y="263.6" class="st0" width="3.7" height="3.8"/>
						<g>
							<polyline class="st2" points="464.1,196.1 525.3,196.1 525.3,191.8 464.1,191.8 							"/>
							<polyline class="st2" points="464.1,191.8 525.3,191.8 525.3,100.9 464.1,100.9 							"/>
						</g>
						<rect x="483.9" y="196" class="st2" width="21.7" height="4.5"/>
						<ellipse class="st3" cx="463.3" cy="267.5" rx="2.3" ry="2.4"/>
						<ellipse class="st3" cx="494.5" cy="267.5" rx="2.3" ry="2.4"/>
						<ellipse class="st3" cx="525.7" cy="267.5" rx="2.3" ry="2.4"/>
					</g>
				</g>
			</g>
			<path class="st25" d="M477.3,57.7c0,0,1.1-6.6,9.5-7.4c8.4-0.8,14.7-4.3,16.6-8.3c4.9,3.3,9.9,7.3,10.3,15.6
				c3.7-5.7,5.3-20.3-7-22.9c-11-11-22.9-6.4-28.7,0.9C469.5,46.6,477.3,57.7,477.3,57.7z"/>
		</g>
		<g>
			<g>
				<g>
					<polyline class="st8" points="358.7,95.5 358.7,68.1 369.9,50.1 369.9,100.6 					"/>
					<g>
						<path class="st8" d="M381,61.7c0,9.1-7.4,16.5-16.5,16.5l0,0c-9.1,0-16.5-7.4-16.5-16.5V51.1c0-9.1,7.4-16.5,16.5-16.5l0,0
							c9.1,0,16.5,7.4,16.5,16.5V61.7z"/>
					</g>
					<path class="st21" d="M349,52.8c0,0,28.5,0,28.2-14c-0.3-14-16.1-13.3-24-7.6C345.2,37,340,51.8,349,52.8z"/>
					<path class="st21" d="M372.5,46.5c0,0,6.2,3.4,8,12.9c3.1-4.9,6.4-11.9,3.2-19.8c-2.2-5.5-6.7-9.5-9.1-6.9
						C374.6,39.8,372.5,46.5,372.5,46.5z"/>
					<path class="st13" d="M340.6,132.6l0.6-50.5c0,0,3.9-1.6,17.4-1.9l6.1,8.5l5.1-8.5c6.6,0.3,15.2,3.1,15.2,3.1l-2.4,49.3H340.6z
						"/>
				</g>
				<ellipse class="st21" cx="364.4" cy="53.5" rx="20.8" ry="21.9"/>
				<polygon class="st13" points="369.9,80.1 369.9,78.8 358.7,78.8 358.7,80.1 364.5,90.1 				"/>
				<path class="st13" d="M341.2,82.1c0,0-24.5,32-13,36.5c17.2,0,29.2,0,29.2,0l-1.9-4.7c0,0-17.8-0.3-19.7-3.1
					C333.9,108,350.9,91,350.9,91"/>
				<path class="st13" d="M385.1,83.2c0,0,24,30.8,12.5,35.4c-17.2,0-29.2,0-29.2,0l1.9-4.7c0,0,17.8-0.3,19.7-3.1
					c1.9-2.8-15.1-19.8-15.1-19.8"/>
			</g>
			<g>
				<g>
					<path class="st3" d="M383.2,244.6c0,0,7.9,2.8,10.9,3.1c3.9,0.3,4.8,5.9,4.8,5.9h-26.4c0,0-1.3-3.3-0.8-6.6
						c5-1,10.9-2.3,10.9-2.3"/>
					<path class="st3" d="M344,244.6c0,0-7.9,2.8-10.9,3.1c-3.9,0.3-4.8,5.9-4.8,5.9h26.4c0,0,1.3-3.3,0.8-6.6
						c-5-1-10.9-2.3-10.9-2.3"/>
					<path class="st20" d="M355.6,247.1c0,0,7.3-76.8,7.3-77.5s-1.1-12.2-10.9-12.2c-9.8,0-12.6,6.5-12.6,13.7c0,7.2,3.6,76,3.6,76
						H355.6z"/>
					<path class="st20" d="M384,247.1c0,0,7.2-76.8,7.2-77.5s-1.1-12.2-10.8-12.2c-9.8,0-12.5,6.5-12.5,13.7c0,7.2,3.6,76,3.6,76
						H384z"/>
				</g>
				<g>
					<g>
						<rect x="359.5" y="191.8" class="st0" width="8.3" height="59.5"/>
						<polygon class="st0" points="334.4,263.6 330.8,263.6 359.5,251.3 364.6,257.5 						"/>
						<polygon class="st0" points="391.4,263.6 396.5,263.6 367.7,251.3 362.7,257.5 						"/>
						<rect x="359.5" y="251.3" class="st0" width="8.3" height="5.3"/>
						<polygon class="st0" points="365.4,267.4 361.8,267.4 360.3,249.6 366.9,249.6 						"/>
						<rect x="330.8" y="263.6" class="st0" width="3.7" height="3.8"/>
						<rect x="392.8" y="263.6" class="st0" width="3.7" height="3.8"/>
						<g>
							<polyline class="st2" points="333,196.1 394.2,196.1 394.2,191.8 333,191.8 							"/>
							<polyline class="st2" points="333,191.8 394.2,191.8 394.2,100.9 333,100.9 							"/>
						</g>
						<rect x="352.7" y="196" class="st2" width="21.7" height="4.5"/>
						<ellipse class="st3" cx="332.2" cy="267.5" rx="2.3" ry="2.4"/>
						<ellipse class="st3" cx="363.4" cy="267.5" rx="2.3" ry="2.4"/>
						<ellipse class="st3" cx="394.6" cy="267.5" rx="2.3" ry="2.4"/>
					</g>
				</g>
			</g>
		</g>
	</g>
	<g>
		<g>
			<path class="st13" d="M213,0"/>
		</g>
	</g>
</g>
</svg>
