<?xml version="1.0" encoding="utf-8"?>
<!-- Generator: Adobe Illustrator 19.2.0, SVG Export Plug-In . SVG Version: 6.00 Build 0)  -->
<svg version="1.1" id="Objects" xmlns="http://www.w3.org/2000/svg" xmlns:xlink="http://www.w3.org/1999/xlink" x="0px" y="0px"
	 viewBox="0 0 352.1 174.2" style="enable-background:new 0 0 352.1 174.2;" xml:space="preserve">
<style type="text/css">
	.st0{fill:#FAAF3B;}
	.st1{fill:#FBED21;}
	.st2{fill:#F1F1F1;}
	.st3{fill:#808080;}
	.st4{fill:#F7DC4C;}
	.st5{fill:#FCFDF2;}
	.st6{fill:#FF4C48;}
	.st7{fill:#FF4241;}
</style>
<g>
	<g>
		<g>
			<path class="st0" d="M112.1,115.9l-7.5-22.8l-7.5-22.8c0,0-20.9-13.5-53.3,7.2c0,0,16.9,0.3,15.9,9.3c0,0-47.3,14.5-59.7,40.8
				c25.6,13.7,72.3-2.7,72.3-2.7c6.1,6.6-7.3,16.9-7.3,16.9C103.3,139.2,112.1,115.9,112.1,115.9z"/>
			<path class="st1" d="M110.5,111l-5.9-17.9l-5.9-17.9c0,0-17.9-15-43.4,1.3c0,0,14.7,4.6,14,11.7c0,0-37.2,11.4-47,32.1
				c20.1,10.8,56.9-2.1,56.9-2.1c4.8,5.2-4.2,18-4.2,18C105.1,134,110.5,111,110.5,111z"/>
			<path class="st2" d="M108.4,104.6l-3.8-11.4l-3.8-11.4c0,0-11.4-9.5-27.6,0.8c0,0,9.4,2.9,8.9,7.4c0,0-23.6,7.3-29.8,20.4
				c12.8,6.8,36.1-1.4,36.1-1.4c3.1,3.3-2.7,11.4-2.7,11.4C105,119.2,108.4,104.6,108.4,104.6z"/>
		</g>
		<g>
			
				<rect x="104.3" y="64.5" transform="matrix(0.9497 -0.3132 0.3132 0.9497 -23.0194 39.1429)" class="st3" width="12.1" height="53.5"/>
			<path class="st4" d="M152.9,30.3c0,0-5.9-15.3,3.7-24.7c0,0-60.9-14.2-110.2,30.6c0,0,54-6.7,76.3,17L152.9,30.3z"/>
			<path class="st4" d="M180.8,115c0,0,4.4,15.8,17.7,17.7c0,0-40.5,47.6-106.8,40.9c0,0,47.4-26.8,51.2-59L180.8,115z"/>
			<path class="st5" d="M124.5,114.8c28.7,4.2,57.4,3.8,105.2-12c76-25.1,122.4-91.3,122.4-91.3S275.4-14.1,199.4,11
				c-47.8,15.8-71.1,32.5-91.7,52.9L124.5,114.8z"/>
			<path class="st4" d="M117.7,54.6c-3.5,3-6.8,6.2-10,9.4l16.8,50.9c4.5,0.7,9,1.2,13.6,1.6L117.7,54.6z"/>
			<path class="st6" d="M304.4,60.8c30.5-24.8,47.7-49.3,47.7-49.3s-28.4-9.4-67.7-11.2L304.4,60.8z"/>
			<path class="st4" d="M121.6,81.9c-30,9.9-52.6,23-52.6,23s26-2.9,55.9-12.8c30-9.9,53.5-20.2,52.6-23
				C176.6,66.3,151.5,72,121.6,81.9z"/>
			
				<ellipse transform="matrix(0.9497 -0.3132 0.3132 0.9497 -1.9089 79.9291)" class="st7" cx="247.9" cy="45.9" rx="22.8" ry="22.8"/>
			
				<ellipse transform="matrix(0.9497 -0.3132 0.3132 0.9497 -1.9088 79.9291)" class="st4" cx="247.9" cy="45.9" rx="16.8" ry="16.8"/>
		</g>
		<g>
			<path class="st3" d="M106.1,97.6l6.9,20.9l11.5-3.8l-6.7-20.4C113.7,95.6,109.8,96.7,106.1,97.6z"/>
			<path class="st4" d="M198.4,132.7c-13.3-1.9-17.7-17.7-17.7-17.7l0,0c-14.2,2.1-26.5,2.5-38.2,1.8c-5.5,31.3-50.9,56.9-50.9,56.9
				C157.9,180.3,198.4,132.7,198.4,132.7z"/>
			<path class="st5" d="M351.6,12.2c-0.1,0.1-0.2,0.2-0.2,0.3C351.5,12.4,351.6,12.3,351.6,12.2z"/>
			<path class="st5" d="M352,11.6c0,0-0.1,0.1-0.1,0.1C352,11.7,352,11.7,352,11.6z"/>
			<path class="st5" d="M229.7,102.8C297.1,80.6,341.2,26,350.3,14c-5.1,6.8-21.1,26.7-45.9,46.9l-10-30.3l-24.9,8.2
				c3.9,11.9-2.6,24.8-14.5,28.8C243,71.5,230.2,65,226.2,53l-48.7,16.1c0.9,2.7-20.2,12.1-47.9,21.4l8.5,25.8
				c1.5,0.1,3,0.2,4.5,0.3c11.7,0.7,24.1,0.4,38.2-1.8C194.9,112.9,210.8,109,229.7,102.8z"/>
			<path class="st5" d="M131,115.6c-2.2-0.3-4.3-0.5-6.5-0.9C126.6,115.1,128.8,115.4,131,115.6z"/>
			<path class="st5" d="M351.2,12.8c-0.2,0.3-0.5,0.7-0.9,1.2C350.7,13.5,351,13.1,351.2,12.8z"/>
			<path class="st5" d="M138,116.4c-2.2-0.2-4.4-0.4-6.6-0.7C133.7,116,135.8,116.2,138,116.4z"/>
			<path class="st6" d="M350.3,14C350.3,14,350.3,13.9,350.3,14c0.3-0.5,0.6-0.8,0.9-1.2c0.1-0.1,0.1-0.2,0.2-0.3
				c0.1-0.1,0.2-0.2,0.2-0.3c0.1-0.2,0.2-0.3,0.3-0.4c0-0.1,0.1-0.1,0.1-0.1c0-0.1,0.1-0.1,0.1-0.1l-57.7,19l10,30.3
				C329.2,40.6,345.2,20.7,350.3,14z"/>
			<path class="st4" d="M177.5,69.1l-49.6,16.4l-11.8,3.9l-11.5,3.8L69,104.9c0,0,15.9-1.8,37.1-7.3c3.7-1,7.6-2,11.6-3.3l6.7,20.4
				l0,0c2.2,0.3,4.3,0.6,6.5,0.9c0.2,0,0.4,0,0.5,0.1c2.2,0.3,4.4,0.5,6.6,0.7c0,0,0,0,0,0l0,0l-8.5-25.8
				C157.3,81.2,178.4,71.8,177.5,69.1z"/>
			<path class="st7" d="M255,67.5c12-3.9,18.4-16.8,14.5-28.8l-5.7,1.9c2.9,8.8-1.9,18.3-10.7,21.2c-8.8,2.9-18.3-1.9-21.2-10.7
				l-5.7,1.9C230.2,65,243,71.5,255,67.5z"/>
			<path class="st4" d="M253.1,61.9c8.8-2.9,13.6-12.4,10.7-21.2l-31.9,10.5C234.8,60,244.3,64.8,253.1,61.9z"/>
		</g>
	</g>
</g>
</svg>
