<?xml version="1.0" encoding="utf-8"?>
<!-- Generator: Adobe Illustrator 19.2.0, SVG Export Plug-In . SVG Version: 6.00 Build 0)  -->
<svg version="1.1" id="Layer_1" xmlns="http://www.w3.org/2000/svg" xmlns:xlink="http://www.w3.org/1999/xlink" x="0px" y="0px"
	 viewBox="0 0 172.2 50" style="enable-background:new 0 0 172.2 50;" xml:space="preserve">
<style type="text/css">
	.st0{fill:#323330;}
</style>
<g>
	<path class="st0" d="M27.3,11.8h-11V40h-4.6V11.8H0.8V8.4h26.5V11.8z"/>
	<path class="st0" d="M46.1,36.5c-0.8,1.3-1.8,2.2-3.1,2.9c-1.2,0.7-2.7,1-4.3,1c-2.8,0-4.9-0.8-6.5-2.4c-1.5-1.6-2.3-4.2-2.3-7.6
		V16.5h4.6v13.9c0,2.5,0.4,4.2,1.2,5.2c0.8,0.9,2,1.4,3.7,1.4c1.6,0,3-0.3,4.1-0.9s1.9-1.5,2.4-2.6V16.5h4.6V40h-4.1L46.1,36.5z"/>
	<path class="st0" d="M62.2,40h-4.6V6.2h4.6V40z"/>
	<path class="st0" d="M84.1,33.7c0-0.9-0.4-1.7-1.2-2.3s-2.2-1.1-4.4-1.6c-3.1-0.6-5.4-1.5-6.9-2.5c-1.6-1.1-2.3-2.5-2.3-4.3
		c0-1.9,0.9-3.5,2.6-4.9c1.8-1.3,4-2,6.8-2c3,0,5.3,0.7,7,2.1c1.7,1.4,2.6,3.1,2.5,5.1l0,0.1h-4.4c0-1-0.5-1.9-1.4-2.8
		s-2.2-1.2-3.7-1.2c-1.6,0-2.9,0.3-3.7,1s-1.2,1.5-1.2,2.4c0,0.9,0.4,1.7,1.1,2.2s2.1,1,4.3,1.4c3.2,0.6,5.6,1.5,7.1,2.6
		c1.6,1.1,2.3,2.6,2.3,4.4c0,2.1-0.9,3.8-2.7,5s-4.2,1.9-7.1,1.9c-3.2,0-5.8-0.8-7.6-2.3c-1.9-1.5-2.7-3.3-2.6-5.3l0-0.1H73
		c0.1,1.5,0.7,2.6,1.8,3.3s2.5,1,4,1c1.6,0,2.9-0.3,3.9-0.9S84.1,34.7,84.1,33.7z"/>
	<path class="st0" d="M110,40c-0.2-0.7-0.3-1.3-0.4-1.9c-0.1-0.5-0.1-1.1-0.2-1.6c-0.9,1.1-2,2.1-3.4,2.8c-1.4,0.8-2.9,1.1-4.5,1.1
		c-2.6,0-4.7-0.6-6-1.9c-1.4-1.2-2.1-3-2.1-5.2c0-2.2,1-4,2.9-5.3s4.6-1.9,8-1.9h5v-2.3c0-1.4-0.5-2.5-1.4-3.3
		c-0.9-0.8-2.2-1.2-3.8-1.2c-1.5,0-2.7,0.4-3.6,1.1S99.3,22,99.3,23h-4.4l0-0.1c-0.1-1.7,0.8-3.3,2.6-4.7s4.2-2.1,7.1-2.1
		c2.9,0,5.2,0.7,6.9,2c1.8,1.4,2.6,3.3,2.6,5.8v11.3c0,0.8,0,1.6,0.1,2.4s0.3,1.5,0.5,2.3H110z M102.4,36.8c1.7,0,3.2-0.4,4.5-1.2
		c1.3-0.8,2.2-1.7,2.6-2.7v-3.8h-5.2c-1.9,0-3.3,0.4-4.5,1.3s-1.7,1.9-1.7,3c0,1,0.4,1.9,1.1,2.5C99.9,36.5,101,36.8,102.4,36.8z"/>
	<path class="st0" d="M135.4,8.4h4.6v22.8c0,2.8-1,5.1-2.9,6.7s-4.4,2.5-7.5,2.5c-3.3,0-5.9-0.8-7.8-2.3s-2.9-3.8-2.8-6.7l0-0.1h4.4
		c0,2,0.5,3.4,1.6,4.4c1.1,1,2.6,1.4,4.5,1.4c1.7,0,3.1-0.5,4.2-1.6c1.1-1.1,1.6-2.5,1.6-4.3V8.4z"/>
	<path class="st0" d="M166.8,32c0-1.4-0.6-2.6-1.8-3.6s-3.2-1.8-6.2-2.4c-3.6-0.8-6.4-2-8.4-3.5c-2-1.5-3-3.5-3-5.8
		c0-2.5,1.1-4.5,3.3-6.2c2.2-1.7,5-2.5,8.5-2.5c3.7,0,6.7,0.9,8.9,2.8c2.2,1.9,3.3,4.1,3.2,6.6l0,0.1h-4.4c0-1.8-0.7-3.3-2-4.5
		c-1.3-1.1-3.2-1.7-5.7-1.7c-2.3,0-4.1,0.5-5.3,1.4s-1.8,2.2-1.8,3.8c0,1.4,0.7,2.5,2,3.4s3.5,1.7,6.5,2.4c3.6,0.8,6.3,2,8.2,3.6
		s2.8,3.6,2.8,6c0,2.5-1.1,4.6-3.4,6.1s-5.2,2.3-8.8,2.3c-3.4,0-6.4-0.9-9-2.6c-2.6-1.7-3.9-4-3.8-6.9l0-0.1h4.4
		c0,2,0.8,3.6,2.4,4.6s3.6,1.6,6,1.6c2.3,0,4.2-0.5,5.5-1.4C166.1,34.8,166.8,33.6,166.8,32z"/>
</g>
</svg>
